<?xml version="1.0" encoding="UTF-8" standalone="no"?>
<!DOCTYPE svg PUBLIC "-//W3C//DTD SVG 1.1//EN"
 "http://www.w3.org/Graphics/SVG/1.1/DTD/svg11.dtd">
<!-- Generated by graphviz version 2.43.0 (0)
 -->
<!-- Title: SpadisQT_Architecture Pages: 1 -->
<svg width="1174pt" height="570pt"
 viewBox="0.00 0.00 1174.00 570.00" xmlns="http://www.w3.org/2000/svg" xmlns:xlink="http://www.w3.org/1999/xlink">
<g id="graph0" class="graph" transform="scale(1 1) rotate(0) translate(4 566)">
<title>SpadisQT_Architecture</title>
<polygon fill="white" stroke="transparent" points="-4,4 -4,-566 1170,-566 1170,4 -4,4"/>
<text text-anchor="middle" x="583" y="-547.6" font-family="DejaVu Sans Bold" font-size="13.00">SpadisQT — layered architecture</text>
<g id="clust1" class="cluster">
<title>cluster_host</title>
<path fill="#f5eef8" stroke="#9b59b6" d="M988,-182C988,-182 1146,-182 1146,-182 1152,-182 1158,-188 1158,-194 1158,-194 1158,-244 1158,-244 1158,-250 1152,-256 1146,-256 1146,-256 988,-256 988,-256 982,-256 976,-250 976,-244 976,-244 976,-194 976,-194 976,-188 982,-182 988,-182"/>
<text text-anchor="middle" x="1067" y="-241.6" font-family="DejaVu Sans Bold" font-size="13.00" fill="#6c3483">Host PC &#160;(optional)</text>
</g>
<g id="clust2" class="cluster">
<title>cluster_app</title>
<path fill="#fef5e7" stroke="#e67e22" d="M69,-182C69,-182 516,-182 516,-182 522,-182 528,-188 528,-194 528,-194 528,-520 528,-520 528,-526 522,-532 516,-532 516,-532 69,-532 69,-532 63,-532 57,-526 57,-520 57,-520 57,-194 57,-194 57,-188 63,-182 69,-182"/>
<text text-anchor="middle" x="292.5" y="-517.6" font-family="DejaVu Sans Bold" font-size="13.00" fill="#b9770e">SpadisQT &#160;/ &#160;SpadisQT_console &#160;&#160;(userspace process)</text>
</g>
<g id="clust3" class="cluster">
<title>cluster_libs</title>
<path fill="#f2f3f4" stroke="#7f8c8d" d="M548,-182C548,-182 956,-182 956,-182 962,-182 968,-188 968,-194 968,-194 968,-244 968,-244 968,-250 962,-256 956,-256 956,-256 548,-256 548,-256 542,-256 536,-250 536,-244 536,-244 536,-194 536,-194 536,-188 542,-182 548,-182"/>
<text text-anchor="middle" x="752" y="-241.6" font-family="DejaVu Sans Bold" font-size="13.00" fill="#566573">Prebuilt closed&#45;source libraries &#160;(aarch64, /vendor/lib64)</text>
</g>
<g id="clust4" class="cluster">
<title>cluster_kernel</title>
<path fill="#ebf5fb" stroke="#2980b9" d="M20,-78C20,-78 370,-78 370,-78 376,-78 382,-84 382,-90 382,-90 382,-140 382,-140 382,-146 376,-152 370,-152 370,-152 20,-152 20,-152 14,-152 8,-146 8,-140 8,-140 8,-90 8,-90 8,-84 14,-78 20,-78"/>
<text text-anchor="middle" x="195" y="-137.6" font-family="DejaVu Sans Bold" font-size="13.00" fill="#1f618d">Linux kernel &#160;(5.10)</text>
</g>
<!-- hosttool -->
<g id="node1" class="node">
<title>hosttool</title>
<path fill="#e8daef" stroke="black" stroke-width="1.2" d="M1138.5,-226C1138.5,-226 995.5,-226 995.5,-226 989.5,-226 983.5,-220 983.5,-214 983.5,-214 983.5,-202 983.5,-202 983.5,-196 989.5,-190 995.5,-190 995.5,-190 1138.5,-190 1138.5,-190 1144.5,-190 1150.5,-196 1150.5,-202 1150.5,-202 1150.5,-214 1150.5,-214 1150.5,-220 1144.5,-226 1138.5,-226"/>
<text text-anchor="middle" x="1067" y="-211.2" font-family="DejaVu Sans" font-size="11.00">ADAPS Host Tool</text>
<text text-anchor="middle" x="1067" y="-199.2" font-family="DejaVu Sans" font-size="11.00">(SpadisPC upper&#45;computer)</text>
</g>
<!-- global -->
<g id="node2" class="node">
<title>global</title>
<path fill="#fdebd0" stroke="black" stroke-width="1.2" d="M505,-502C505,-502 349,-502 349,-502 343,-502 337,-496 337,-490 337,-490 337,-478 337,-478 337,-472 343,-466 349,-466 349,-466 505,-466 505,-466 511,-466 517,-472 517,-478 517,-478 517,-490 517,-490 517,-496 511,-502 505,-502"/>
<text text-anchor="middle" x="427" y="-487.2" font-family="DejaVu Sans" font-size="11.00">GlobalApplication</text>
<text text-anchor="middle" x="427" y="-475.2" font-family="DejaVu Sans" font-size="11.00">(global state / registry, qApp)</text>
</g>
<!-- v4l2 -->
<g id="node5" class="node">
<title>v4l2</title>
<path fill="#fdebd0" stroke="black" stroke-width="1.2" d="M310,-330C310,-330 240,-330 240,-330 234,-330 228,-324 228,-318 228,-318 228,-306 228,-306 228,-300 234,-294 240,-294 240,-294 310,-294 310,-294 316,-294 322,-300 322,-306 322,-306 322,-318 322,-318 322,-324 316,-330 310,-330"/>
<text text-anchor="middle" x="275" y="-315.2" font-family="DejaVu Sans" font-size="11.00">V4L2</text>
<text text-anchor="middle" x="275" y="-303.2" font-family="DejaVu Sans" font-size="11.00">(MIPI capture)</text>
</g>
<!-- global&#45;&gt;v4l2 -->
<g id="edge6" class="edge">
<title>global&#45;&gt;v4l2</title>
<path fill="none" stroke="#555555" stroke-dasharray="1,5" d="M417.26,-465.85C414.32,-459.78 411.48,-452.77 410,-446 409.05,-441.66 409.38,-440.4 410,-436 415.54,-396.94 456.92,-380.58 432,-350 404.19,-315.88 377.76,-340.45 335,-330 333.95,-329.74 332.89,-329.48 331.82,-329.21"/>
<polygon fill="#555555" stroke="#555555" points="332.64,-325.81 322.08,-326.69 330.88,-332.58 332.64,-325.81"/>
<text text-anchor="middle" x="454.5" y="-395.8" font-family="DejaVu Sans" font-size="9.00">registry</text>
</g>
<!-- misc -->
<g id="node7" class="node">
<title>misc</title>
<path fill="#fdebd0" stroke="black" stroke-width="1.2" d="M195,-226C195,-226 77,-226 77,-226 71,-226 65,-220 65,-214 65,-214 65,-202 65,-202 65,-196 71,-190 77,-190 77,-190 195,-190 195,-190 201,-190 207,-196 207,-202 207,-202 207,-214 207,-214 207,-220 201,-226 195,-226"/>
<text text-anchor="middle" x="136" y="-211.2" font-family="DejaVu Sans" font-size="11.00">Misc_Device</text>
<text text-anchor="middle" x="136" y="-199.2" font-family="DejaVu Sans" font-size="11.00">(ioctl to /dev/ads6401)</text>
</g>
<!-- global&#45;&gt;misc -->
<g id="edge7" class="edge">
<title>global&#45;&gt;misc</title>
<path fill="none" stroke="#555555" stroke-dasharray="1,5" d="M445.15,-465.75C480.49,-430.11 551.24,-347.26 506,-294 472.18,-254.19 324.68,-268.69 274,-256 245.59,-248.89 214.67,-238.6 189.31,-229.46"/>
<polygon fill="#555555" stroke="#555555" points="190.47,-226.16 179.88,-226.03 188.08,-232.74 190.47,-226.16"/>
</g>
<!-- mainwin -->
<g id="node3" class="node">
<title>mainwin</title>
<path fill="#fdebd0" stroke="black" stroke-width="1.2" d="M289.5,-502C289.5,-502 114.5,-502 114.5,-502 108.5,-502 102.5,-496 102.5,-490 102.5,-490 102.5,-478 102.5,-478 102.5,-472 108.5,-466 114.5,-466 114.5,-466 289.5,-466 289.5,-466 295.5,-466 301.5,-472 301.5,-478 301.5,-478 301.5,-490 301.5,-490 301.5,-496 295.5,-502 289.5,-502"/>
<text text-anchor="middle" x="202" y="-487.2" font-family="DejaVu Sans" font-size="11.00">MainWindow</text>
<text text-anchor="middle" x="202" y="-475.2" font-family="DejaVu Sans" font-size="11.00">(GUI display; console = QObject)</text>
</g>
<!-- fpt -->
<g id="node4" class="node">
<title>fpt</title>
<path fill="#f8c471" stroke="black" stroke-width="1.2" d="M371,-416C371,-416 179,-416 179,-416 173,-416 167,-410 167,-404 167,-404 167,-392 167,-392 167,-386 173,-380 179,-380 179,-380 371,-380 371,-380 377,-380 383,-386 383,-392 383,-392 383,-404 383,-404 383,-410 377,-416 371,-416"/>
<text text-anchor="middle" x="275" y="-401.2" font-family="DejaVu Sans" font-size="11.00">FrameProcessThread</text>
<text text-anchor="middle" x="275" y="-389.2" font-family="DejaVu Sans" font-size="11.00">(capture + decode worker QThread)</text>
</g>
<!-- mainwin&#45;&gt;fpt -->
<g id="edge1" class="edge">
<title>mainwin&#45;&gt;fpt</title>
<path fill="none" stroke="#555555" stroke-dasharray="5,2" d="M194.63,-465.72C191.8,-456.27 190.44,-444.75 196,-436 199.47,-430.55 203.97,-425.89 209.07,-421.9"/>
<polygon fill="#555555" stroke="#555555" points="211.2,-424.69 217.51,-416.18 207.27,-418.89 211.2,-424.69"/>
<text text-anchor="middle" x="221" y="-438.8" font-family="DejaVu Sans" font-size="9.00">start / stop</text>
</g>
<!-- fpt&#45;&gt;mainwin -->
<g id="edge4" class="edge">
<title>fpt&#45;&gt;mainwin</title>
<path fill="none" stroke="#e74c3c" d="M267.14,-416.08C262.37,-425.46 255.71,-436.99 248,-446 244.07,-450.59 239.52,-455.03 234.83,-459.14"/>
<polygon fill="#e74c3c" stroke="#e74c3c" points="232.36,-456.64 226.9,-465.72 236.83,-462.03 232.36,-456.64"/>
<text text-anchor="middle" x="312.5" y="-438.8" font-family="DejaVu Sans" font-size="9.00" fill="#c0392b">newFrameReady4Display</text>
</g>
<!-- fpt&#45;&gt;v4l2 -->
<g id="edge2" class="edge">
<title>fpt&#45;&gt;v4l2</title>
<path fill="none" stroke="#555555" d="M275,-379.6C275,-368.26 275,-353.23 275,-340.32"/>
<polygon fill="#555555" stroke="#555555" points="278.5,-340.1 275,-330.1 271.5,-340.1 278.5,-340.1"/>
<text text-anchor="middle" x="287" y="-352.8" font-family="DejaVu Sans" font-size="9.00">owns</text>
</g>
<!-- dtof -->
<g id="node6" class="node">
<title>dtof</title>
<path fill="#fdebd0" stroke="black" stroke-width="1.2" d="M190.5,-330C190.5,-330 77.5,-330 77.5,-330 71.5,-330 65.5,-324 65.5,-318 65.5,-318 65.5,-306 65.5,-306 65.5,-300 71.5,-294 77.5,-294 77.5,-294 190.5,-294 190.5,-294 196.5,-294 202.5,-300 202.5,-306 202.5,-306 202.5,-318 202.5,-318 202.5,-324 196.5,-330 190.5,-330"/>
<text text-anchor="middle" x="134" y="-315.2" font-family="DejaVu Sans" font-size="11.00">ADAPS_DTOF</text>
<text text-anchor="middle" x="134" y="-303.2" font-family="DejaVu Sans" font-size="11.00">(decode + color map)</text>
</g>
<!-- fpt&#45;&gt;dtof -->
<g id="edge3" class="edge">
<title>fpt&#45;&gt;dtof</title>
<path fill="none" stroke="#555555" d="M246.13,-379.8C224.55,-366.95 194.87,-349.26 171.47,-335.32"/>
<polygon fill="#555555" stroke="#555555" points="173.22,-332.29 162.84,-330.18 169.63,-338.3 173.22,-332.29"/>
<text text-anchor="middle" x="221" y="-352.8" font-family="DejaVu Sans" font-size="9.00">owns</text>
</g>
<!-- hostc -->
<g id="node8" class="node">
<title>hostc</title>
<path fill="#fdebd0" stroke="black" stroke-width="1.2" d="M481,-330C481,-330 359,-330 359,-330 353,-330 347,-324 347,-318 347,-318 347,-306 347,-306 347,-300 353,-294 359,-294 359,-294 481,-294 481,-294 487,-294 493,-300 493,-306 493,-306 493,-318 493,-318 493,-324 487,-330 481,-330"/>
<text text-anchor="middle" x="420" y="-315.2" font-family="DejaVu Sans" font-size="11.00">Host_Communication</text>
<text text-anchor="middle" x="420" y="-303.2" font-family="DejaVu Sans" font-size="11.00">(singleton, host bridge)</text>
</g>
<!-- fpt&#45;&gt;hostc -->
<g id="edge5" class="edge">
<title>fpt&#45;&gt;hostc</title>
<path fill="none" stroke="#555555" d="M304.69,-379.8C326.88,-366.95 357.4,-349.26 381.47,-335.32"/>
<polygon fill="#555555" stroke="#555555" points="383.45,-338.22 390.35,-330.18 379.94,-332.16 383.45,-338.22"/>
<text text-anchor="middle" x="390.5" y="-352.8" font-family="DejaVu Sans" font-size="9.00">upload_frame_*()</text>
</g>
<!-- v4l2drv -->
<g id="node11" class="node">
<title>v4l2drv</title>
<path fill="#d4e6f1" stroke="black" stroke-width="1.2" d="M361.5,-122C361.5,-122 228.5,-122 228.5,-122 222.5,-122 216.5,-116 216.5,-110 216.5,-110 216.5,-98 216.5,-98 216.5,-92 222.5,-86 228.5,-86 228.5,-86 361.5,-86 361.5,-86 367.5,-86 373.5,-92 373.5,-98 373.5,-98 373.5,-110 373.5,-110 373.5,-116 367.5,-122 361.5,-122"/>
<text text-anchor="middle" x="295" y="-107.2" font-family="DejaVu Sans" font-size="11.00">V4L2 / media subsystem</text>
<text text-anchor="middle" x="295" y="-95.2" font-family="DejaVu Sans" font-size="11.00">/dev/video0 &#160;/dev/media0</text>
</g>
<!-- v4l2&#45;&gt;v4l2drv -->
<g id="edge12" class="edge">
<title>v4l2&#45;&gt;v4l2drv</title>
<path fill="none" stroke="#555555" d="M276.67,-293.79C280.15,-257.95 288.2,-175.09 292.37,-132.05"/>
<polygon fill="#555555" stroke="#555555" points="295.87,-132.31 293.35,-122.02 288.9,-131.63 295.87,-132.31"/>
<text text-anchor="middle" x="339" y="-205.8" font-family="DejaVu Sans" font-size="9.00">VIDIOC_* / mmap / poll</text>
</g>
<!-- dtof&#45;&gt;misc -->
<g id="edge11" class="edge">
<title>dtof&#45;&gt;misc</title>
<path fill="none" stroke="#555555" d="M134.34,-293.7C134.65,-277.92 135.11,-254.36 135.47,-236.09"/>
<polygon fill="#555555" stroke="#555555" points="138.97,-236.11 135.67,-226.05 131.97,-235.98 138.97,-236.11"/>
<text text-anchor="middle" x="175.5" y="-266.8" font-family="DejaVu Sans" font-size="9.00">EEPROM / params</text>
</g>
<!-- algolib -->
<g id="node9" class="node">
<title>algolib</title>
<path fill="#e5e7e9" stroke="black" stroke-width="1.2" d="M780,-226C780,-226 556,-226 556,-226 550,-226 544,-220 544,-214 544,-214 544,-202 544,-202 544,-196 550,-190 556,-190 556,-190 780,-190 780,-190 786,-190 792,-196 792,-202 792,-202 792,-214 792,-214 792,-220 786,-226 780,-226"/>
<text text-anchor="middle" x="668" y="-211.2" font-family="DejaVu Sans" font-size="11.00">libadaps_swift_decode.so</text>
<text text-anchor="middle" x="668" y="-199.2" font-family="DejaVu Sans" font-size="11.00">(raw &#45;&gt; depth16 / grayscale / point cloud)</text>
</g>
<!-- dtof&#45;&gt;algolib -->
<g id="edge10" class="edge">
<title>dtof&#45;&gt;algolib</title>
<path fill="none" stroke="#555555" d="M212.76,-294.37C213.51,-294.25 214.26,-294.12 215,-294 355.89,-270.87 394.91,-288.27 534,-256 562.09,-249.48 592.49,-239.11 617.22,-229.76"/>
<polygon fill="#555555" stroke="#555555" points="212.1,-290.93 202.86,-296.12 213.31,-297.83 212.1,-290.93"/>
<polygon fill="#555555" stroke="#555555" points="618.67,-232.96 626.75,-226.11 616.16,-226.42 618.67,-232.96"/>
</g>
<!-- adsdrv -->
<g id="node12" class="node">
<title>adsdrv</title>
<path fill="#d4e6f1" stroke="black" stroke-width="1.2" d="M179.5,-122C179.5,-122 28.5,-122 28.5,-122 22.5,-122 16.5,-116 16.5,-110 16.5,-110 16.5,-98 16.5,-98 16.5,-92 22.5,-86 28.5,-86 28.5,-86 179.5,-86 179.5,-86 185.5,-86 191.5,-92 191.5,-98 191.5,-98 191.5,-110 191.5,-110 191.5,-116 185.5,-122 179.5,-122"/>
<text text-anchor="middle" x="104" y="-107.2" font-family="DejaVu Sans" font-size="11.00">ads6401 driver</text>
<text text-anchor="middle" x="104" y="-95.2" font-family="DejaVu Sans" font-size="11.00">/dev/ads6401 (control ioctls)</text>
</g>
<!-- misc&#45;&gt;adsdrv -->
<g id="edge13" class="edge">
<title>misc&#45;&gt;adsdrv</title>
<path fill="none" stroke="#555555" d="M130.57,-189.7C125.6,-173.85 118.16,-150.14 112.42,-131.84"/>
<polygon fill="#555555" stroke="#555555" points="115.68,-130.54 109.35,-122.05 109,-132.64 115.68,-130.54"/>
<text text-anchor="middle" x="133.5" y="-162.8" font-family="DejaVu Sans" font-size="9.00">ioctl</text>
</g>
<!-- hostc&#45;&gt;hosttool -->
<g id="edge8" class="edge">
<title>hostc&#45;&gt;hosttool</title>
<path fill="none" stroke="#8e44ad" d="M503.23,-306.49C635.6,-298.69 887.91,-281.08 974,-256 993.64,-250.28 1014.07,-240.44 1030.76,-231.25"/>
<polygon fill="#8e44ad" stroke="#8e44ad" points="502.92,-303.01 493.14,-307.08 503.33,-309.99 502.92,-303.01"/>
<polygon fill="#8e44ad" stroke="#8e44ad" points="1032.65,-234.2 1039.62,-226.23 1029.2,-228.11 1032.65,-234.2"/>
<text text-anchor="middle" x="984.5" y="-266.8" font-family="DejaVu Sans" font-size="9.00" fill="#6c3483">commands / frames</text>
</g>
<!-- senderlib -->
<g id="node10" class="node">
<title>senderlib</title>
<path fill="#e5e7e9" stroke="black" stroke-width="1.2" d="M922.5,-226C922.5,-226 829.5,-226 829.5,-226 823.5,-226 817.5,-220 817.5,-214 817.5,-214 817.5,-202 817.5,-202 817.5,-196 823.5,-190 829.5,-190 829.5,-190 922.5,-190 922.5,-190 928.5,-190 934.5,-196 934.5,-202 934.5,-202 934.5,-214 934.5,-214 934.5,-220 928.5,-226 922.5,-226"/>
<text text-anchor="middle" x="876" y="-211.2" font-family="DejaVu Sans" font-size="11.00">libAdapsSender.so</text>
<text text-anchor="middle" x="876" y="-199.2" font-family="DejaVu Sans" font-size="11.00">(host transport)</text>
</g>
<!-- hostc&#45;&gt;senderlib -->
<g id="edge9" class="edge">
<title>hostc&#45;&gt;senderlib</title>
<path fill="none" stroke="#555555" d="M493.33,-310.04C572.6,-306.86 701.5,-295.35 805,-256 820.04,-250.28 835.13,-240.92 847.51,-232.06"/>
<polygon fill="#555555" stroke="#555555" points="849.66,-234.82 855.61,-226.05 845.49,-229.2 849.66,-234.82"/>
</g>
<!-- sensor -->
<g id="node13" class="node">
<title>sensor</title>
<polygon fill="#aed6f1" stroke="black" stroke-width="1.2" points="313,-36 115,-36 111,-32 111,0 309,0 313,-4 313,-36"/>
<polyline fill="none" stroke="black" stroke-width="1.2" points="309,-32 111,-32 "/>
<polyline fill="none" stroke="black" stroke-width="1.2" points="309,-32 309,0 "/>
<polyline fill="none" stroke="black" stroke-width="1.2" points="309,-32 313,-36 "/>
<text text-anchor="middle" x="212" y="-21.2" font-family="DejaVu Sans" font-size="11.00">ADS6401 dToF sensor module</text>
<text text-anchor="middle" x="212" y="-9.2" font-family="DejaVu Sans" font-size="11.00">(Spot / Flood / Big&#45;FoV Flood / V2)</text>
</g>
<!-- v4l2drv&#45;&gt;sensor -->
<g id="edge14" class="edge">
<title>v4l2drv&#45;&gt;sensor</title>
<path fill="none" stroke="#555555" d="M277.8,-85.6C265.7,-73.35 249.35,-56.8 235.97,-43.26"/>
<polygon fill="#555555" stroke="#555555" points="238.41,-40.75 228.89,-36.1 233.43,-45.67 238.41,-40.75"/>
<text text-anchor="middle" x="274.5" y="-58.8" font-family="DejaVu Sans" font-size="9.00">MIPI&#45;CSI</text>
</g>
<!-- adsdrv&#45;&gt;sensor -->
<g id="edge15" class="edge">
<title>adsdrv&#45;&gt;sensor</title>
<path fill="none" stroke="#555555" d="M126.12,-85.8C142.13,-73.34 163.98,-56.35 181.63,-42.62"/>
<polygon fill="#555555" stroke="#555555" points="184.17,-45.08 189.91,-36.18 179.87,-39.56 184.17,-45.08"/>
<text text-anchor="middle" x="190" y="-58.8" font-family="DejaVu Sans" font-size="9.00">I2C / control</text>
</g>
</g>
</svg>
