<?xml version="1.0" encoding="UTF-8" standalone="no"?>
<!DOCTYPE svg PUBLIC "-//W3C//DTD SVG 1.1//EN"
 "http://www.w3.org/Graphics/SVG/1.1/DTD/svg11.dtd">
<!-- Generated by graphviz version 2.43.0 (0)
 -->
<!-- Title: SpadisQT_CaptureSequence Pages: 1 -->
<svg width="474pt" height="1069pt"
 viewBox="0.00 0.00 474.00 1069.43" xmlns="http://www.w3.org/2000/svg" xmlns:xlink="http://www.w3.org/1999/xlink">
<g id="graph0" class="graph" transform="scale(1 1) rotate(0) translate(4 1065.43)">
<title>SpadisQT_CaptureSequence</title>
<polygon fill="white" stroke="transparent" points="-4,4 -4,-1065.43 470,-1065.43 470,4 -4,4"/>
<text text-anchor="middle" x="233" y="-1047.03" font-family="DejaVu Sans Bold" font-size="13.00">SpadisQT — one frame: capture &#45;&gt; decode &#45;&gt; display / upload</text>
<!-- start -->
<g id="node1" class="node">
<title>start</title>
<ellipse fill="#f8c471" stroke="black" stroke-width="1.2" cx="260.5" cy="-1018.21" rx="104.8" ry="21.43"/>
<text text-anchor="middle" x="260.5" y="-1021.21" font-family="DejaVu Sans" font-size="10.00">FrameProcessThread::run()</text>
<text text-anchor="middle" x="260.5" y="-1010.21" font-family="DejaVu Sans" font-size="10.00">capture loop</text>
</g>
<!-- poll -->
<g id="node2" class="node">
<title>poll</title>
<path fill="#fdebd0" stroke="black" stroke-width="1.2" d="M312,-964C312,-964 209,-964 209,-964 203,-964 197,-958 197,-952 197,-952 197,-940 197,-940 197,-934 203,-928 209,-928 209,-928 312,-928 312,-928 318,-928 324,-934 324,-940 324,-940 324,-952 324,-952 324,-958 318,-964 312,-964"/>
<text text-anchor="middle" x="260.5" y="-949" font-family="DejaVu Sans" font-size="10.00">V4L2::Capture_frame()</text>
<text text-anchor="middle" x="260.5" y="-938" font-family="DejaVu Sans" font-size="10.00">poll(/dev/video0)</text>
</g>
<!-- start&#45;&gt;poll -->
<g id="edge1" class="edge">
<title>start&#45;&gt;poll</title>
<path fill="none" stroke="#555555" d="M260.5,-996.9C260.5,-989.86 260.5,-981.84 260.5,-974.32"/>
<polygon fill="#555555" stroke="#555555" points="264,-974.18 260.5,-964.18 257,-974.18 264,-974.18"/>
</g>
<!-- deq -->
<g id="node3" class="node">
<title>deq</title>
<path fill="#fdebd0" stroke="black" stroke-width="1.2" d="M311,-895C311,-895 210,-895 210,-895 204,-895 198,-889 198,-883 198,-883 198,-871 198,-871 198,-865 204,-859 210,-859 210,-859 311,-859 311,-859 317,-859 323,-865 323,-871 323,-871 323,-883 323,-883 323,-889 317,-895 311,-895"/>
<text text-anchor="middle" x="260.5" y="-880" font-family="DejaVu Sans" font-size="10.00">VIDIOC_DQBUF</text>
<text text-anchor="middle" x="260.5" y="-869" font-family="DejaVu Sans" font-size="10.00">mmap raw MIPI frame</text>
</g>
<!-- poll&#45;&gt;deq -->
<g id="edge2" class="edge">
<title>poll&#45;&gt;deq</title>
<path fill="none" stroke="#555555" d="M260.5,-927.75C260.5,-921 260.5,-913.09 260.5,-905.59"/>
<polygon fill="#555555" stroke="#555555" points="264,-905.43 260.5,-895.43 257,-905.43 264,-905.43"/>
</g>
<!-- emit1 -->
<g id="node4" class="node">
<title>emit1</title>
<path fill="#fadbd8" stroke="#e74c3c" stroke-width="1.2" d="M312.5,-826C312.5,-826 208.5,-826 208.5,-826 202.5,-826 196.5,-820 196.5,-814 196.5,-814 196.5,-802 196.5,-802 196.5,-796 202.5,-790 208.5,-790 208.5,-790 312.5,-790 312.5,-790 318.5,-790 324.5,-796 324.5,-802 324.5,-802 324.5,-814 324.5,-814 324.5,-820 318.5,-826 312.5,-826"/>
<text text-anchor="middle" x="260.5" y="-805.5" font-family="DejaVu Sans" font-size="10.00">emit rx_new_frame(...)</text>
</g>
<!-- deq&#45;&gt;emit1 -->
<g id="edge3" class="edge">
<title>deq&#45;&gt;emit1</title>
<path fill="none" stroke="#555555" d="M260.5,-858.75C260.5,-852 260.5,-844.09 260.5,-836.59"/>
<polygon fill="#555555" stroke="#555555" points="264,-836.43 260.5,-826.43 257,-836.43 264,-836.43"/>
</g>
<!-- handle -->
<g id="node5" class="node">
<title>handle</title>
<path fill="#fdebd0" stroke="black" stroke-width="1.2" d="M307,-757C307,-757 214,-757 214,-757 208,-757 202,-751 202,-745 202,-745 202,-733 202,-733 202,-727 208,-721 214,-721 214,-721 307,-721 307,-721 313,-721 319,-727 319,-733 319,-733 319,-745 319,-745 319,-751 313,-757 307,-757"/>
<text text-anchor="middle" x="260.5" y="-742" font-family="DejaVu Sans" font-size="10.00">new_frame_handle()</text>
<text text-anchor="middle" x="260.5" y="-731" font-family="DejaVu Sans" font-size="10.00">(direct connection)</text>
</g>
<!-- emit1&#45;&gt;handle -->
<g id="edge4" class="edge">
<title>emit1&#45;&gt;handle</title>
<path fill="none" stroke="#555555" d="M260.5,-789.75C260.5,-783 260.5,-775.09 260.5,-767.59"/>
<polygon fill="#555555" stroke="#555555" points="264,-767.43 260.5,-757.43 257,-767.43 264,-767.43"/>
</g>
<!-- skipq -->
<g id="node6" class="node">
<title>skipq</title>
<path fill="#fcf3cf" stroke="black" stroke-width="1.2" d="M248.69,-685.87C248.69,-685.87 172.51,-672.13 172.51,-672.13 166.61,-671.06 166.61,-668.94 172.51,-667.87 172.51,-667.87 248.69,-654.13 248.69,-654.13 254.6,-653.06 266.4,-653.06 272.31,-654.13 272.31,-654.13 348.49,-667.87 348.49,-667.87 354.39,-668.94 354.39,-671.06 348.49,-672.13 348.49,-672.13 272.31,-685.87 272.31,-685.87 266.4,-686.94 254.6,-686.94 248.69,-685.87"/>
<text text-anchor="middle" x="260.5" y="-667.5" font-family="DejaVu Sans" font-size="10.00">skip_frame_decode ?</text>
</g>
<!-- handle&#45;&gt;skipq -->
<g id="edge5" class="edge">
<title>handle&#45;&gt;skipq</title>
<path fill="none" stroke="#555555" d="M260.5,-720.75C260.5,-714 260.5,-706.09 260.5,-698.59"/>
<polygon fill="#555555" stroke="#555555" points="264,-698.43 260.5,-688.43 257,-698.43 264,-698.43"/>
</g>
<!-- decode -->
<g id="node7" class="node">
<title>decode</title>
<path fill="#fdebd0" stroke="black" stroke-width="1.2" d="M274,-610C274,-610 109,-610 109,-610 103,-610 97,-604 97,-598 97,-598 97,-581 97,-581 97,-575 103,-569 109,-569 109,-569 274,-569 274,-569 280,-569 286,-575 286,-581 286,-581 286,-598 286,-598 286,-604 280,-610 274,-610"/>
<text text-anchor="middle" x="191.5" y="-598" font-family="DejaVu Sans" font-size="10.00">ADAPS_DTOF::dtof_frame_decode()</text>
<text text-anchor="middle" x="191.5" y="-587" font-family="DejaVu Sans" font-size="10.00">&#45;&gt; depth16 / grayscale /</text>
<text text-anchor="middle" x="191.5" y="-576" font-family="DejaVu Sans" font-size="10.00"> &#160;&#160;point cloud / histogram</text>
</g>
<!-- skipq&#45;&gt;decode -->
<g id="edge6" class="edge">
<title>skipq&#45;&gt;decode</title>
<path fill="none" stroke="#555555" d="M247.52,-654.23C238.56,-644.03 226.36,-630.16 215.64,-617.96"/>
<polygon fill="#555555" stroke="#555555" points="218.08,-615.44 208.85,-610.24 212.82,-620.06 218.08,-615.44"/>
<text text-anchor="middle" x="236.5" y="-628.8" font-family="DejaVu Sans" font-size="9.00">no</text>
</g>
<!-- raw -->
<g id="node8" class="node">
<title>raw</title>
<path fill="#f2f3f4" stroke="black" stroke-width="1.2" d="M357.5,-553C357.5,-553 283.5,-553 283.5,-553 277.5,-553 271.5,-547 271.5,-541 271.5,-541 271.5,-529 271.5,-529 271.5,-523 277.5,-517 283.5,-517 283.5,-517 357.5,-517 357.5,-517 363.5,-517 369.5,-523 369.5,-529 369.5,-529 369.5,-541 369.5,-541 369.5,-547 363.5,-553 357.5,-553"/>
<text text-anchor="middle" x="320.5" y="-538" font-family="DejaVu Sans" font-size="10.00">raw passthrough</text>
<text text-anchor="middle" x="320.5" y="-527" font-family="DejaVu Sans" font-size="10.00">(no decode)</text>
</g>
<!-- skipq&#45;&gt;raw -->
<g id="edge7" class="edge">
<title>skipq&#45;&gt;raw</title>
<path fill="none" stroke="#555555" d="M271.71,-653.6C279.73,-642.05 290.33,-625.6 297.5,-610 304.42,-594.95 310,-577.26 313.93,-562.95"/>
<polygon fill="#555555" stroke="#555555" points="317.33,-563.78 316.5,-553.21 310.57,-561.99 317.33,-563.78"/>
<text text-anchor="middle" x="296.5" y="-628.8" font-family="DejaVu Sans" font-size="9.00">yes</text>
</g>
<!-- guiq -->
<g id="node9" class="node">
<title>guiq</title>
<path fill="#fcf3cf" stroke="black" stroke-width="1.2" d="M180.04,-497.45C180.04,-497.45 144.91,-486.55 144.91,-486.55 139.18,-484.78 139.18,-481.22 144.91,-479.45 144.91,-479.45 180.04,-468.55 180.04,-468.55 185.77,-466.78 197.23,-466.78 202.96,-468.55 202.96,-468.55 238.09,-479.45 238.09,-479.45 243.82,-481.22 243.82,-484.78 238.09,-486.55 238.09,-486.55 202.96,-497.45 202.96,-497.45 197.23,-499.22 185.77,-499.22 180.04,-497.45"/>
<text text-anchor="middle" x="191.5" y="-480.5" font-family="DejaVu Sans" font-size="10.00">GUI build ?</text>
</g>
<!-- decode&#45;&gt;guiq -->
<g id="edge8" class="edge">
<title>decode&#45;&gt;guiq</title>
<path fill="none" stroke="#555555" d="M191.5,-568.84C191.5,-552.61 191.5,-529.39 191.5,-511.34"/>
<polygon fill="#555555" stroke="#555555" points="195,-511.14 191.5,-501.14 188,-511.14 195,-511.14"/>
</g>
<!-- hostq -->
<g id="node12" class="node">
<title>hostq</title>
<path fill="#fcf3cf" stroke="black" stroke-width="1.2" d="M236.38,-271.49C236.38,-271.49 184.62,-250.51 184.62,-250.51 179.06,-248.25 179.06,-243.75 184.62,-241.49 184.62,-241.49 236.38,-220.51 236.38,-220.51 241.94,-218.25 253.06,-218.25 258.62,-220.51 258.62,-220.51 310.38,-241.49 310.38,-241.49 315.94,-243.75 315.94,-248.25 310.38,-250.51 310.38,-250.51 258.62,-271.49 258.62,-271.49 253.06,-273.75 241.94,-273.75 236.38,-271.49"/>
<text text-anchor="middle" x="247.5" y="-249" font-family="DejaVu Sans" font-size="10.00">host upload</text>
<text text-anchor="middle" x="247.5" y="-238" font-family="DejaVu Sans" font-size="10.00">requested ?</text>
</g>
<!-- raw&#45;&gt;hostq -->
<g id="edge9" class="edge">
<title>raw&#45;&gt;hostq</title>
<path fill="none" stroke="#555555" d="M320.5,-516.94C320.5,-499.02 320.5,-470.03 320.5,-445 320.5,-445 320.5,-445 320.5,-326 320.5,-302.84 303.37,-283.58 285.71,-269.88"/>
<polygon fill="#555555" stroke="#555555" points="287.76,-267.04 277.61,-263.98 283.63,-272.7 287.76,-267.04"/>
</g>
<!-- color -->
<g id="node10" class="node">
<title>color</title>
<path fill="#fdebd0" stroke="black" stroke-width="1.2" d="M200,-423C200,-423 63,-423 63,-423 57,-423 51,-417 51,-411 51,-411 51,-399 51,-399 51,-393 57,-387 63,-387 63,-387 200,-387 200,-387 206,-387 212,-393 212,-399 212,-399 212,-411 212,-411 212,-417 206,-423 200,-423"/>
<text text-anchor="middle" x="131.5" y="-408" font-family="DejaVu Sans" font-size="10.00">ConvertDepthToColoredMap()</text>
<text text-anchor="middle" x="131.5" y="-397" font-family="DejaVu Sans" font-size="10.00">&#45;&gt; QImage (RGB)</text>
</g>
<!-- guiq&#45;&gt;color -->
<g id="edge10" class="edge">
<title>guiq&#45;&gt;color</title>
<path fill="none" stroke="#555555" d="M180.5,-468.06C172.36,-457.75 161.06,-443.44 151.36,-431.15"/>
<polygon fill="#555555" stroke="#555555" points="153.9,-428.72 144.96,-423.04 148.41,-433.06 153.9,-428.72"/>
<text text-anchor="middle" x="173.5" y="-441.8" font-family="DejaVu Sans" font-size="9.00">yes</text>
</g>
<!-- guiq&#45;&gt;hostq -->
<g id="edge13" class="edge">
<title>guiq&#45;&gt;hostq</title>
<path fill="none" stroke="#555555" d="M200.88,-467.59C207.95,-456.01 217.31,-439.08 222.5,-423 237.26,-377.29 243.32,-322.11 245.79,-285.87"/>
<polygon fill="#555555" stroke="#555555" points="249.3,-285.91 246.43,-275.72 242.31,-285.48 249.3,-285.91"/>
<text text-anchor="middle" x="265.5" y="-363.8" font-family="DejaVu Sans" font-size="9.00">no (console)</text>
</g>
<!-- emit2 -->
<g id="node11" class="node">
<title>emit2</title>
<path fill="#fadbd8" stroke="#e74c3c" stroke-width="1.2" d="M201.5,-345C201.5,-345 51.5,-345 51.5,-345 45.5,-345 39.5,-339 39.5,-333 39.5,-333 39.5,-321 39.5,-321 39.5,-315 45.5,-309 51.5,-309 51.5,-309 201.5,-309 201.5,-309 207.5,-309 213.5,-315 213.5,-321 213.5,-321 213.5,-333 213.5,-333 213.5,-339 207.5,-345 201.5,-345"/>
<text text-anchor="middle" x="126.5" y="-330" font-family="DejaVu Sans" font-size="10.00">emit newFrameReady4Display()</text>
<text text-anchor="middle" x="126.5" y="-319" font-family="DejaVu Sans" font-size="10.00">&#45;&gt; MainWindow</text>
</g>
<!-- color&#45;&gt;emit2 -->
<g id="edge11" class="edge">
<title>color&#45;&gt;emit2</title>
<path fill="none" stroke="#555555" d="M130.37,-386.75C129.75,-377.43 128.98,-365.69 128.29,-355.17"/>
<polygon fill="#555555" stroke="#555555" points="131.78,-354.93 127.63,-345.18 124.79,-355.39 131.78,-354.93"/>
</g>
<!-- emit2&#45;&gt;hostq -->
<g id="edge12" class="edge">
<title>emit2&#45;&gt;hostq</title>
<path fill="none" stroke="#555555" d="M152.76,-308.86C169.99,-297.6 192.76,-282.74 211.66,-270.4"/>
<polygon fill="#555555" stroke="#555555" points="213.58,-273.33 220.04,-264.93 209.75,-267.47 213.58,-273.33"/>
</g>
<!-- upload -->
<g id="node13" class="node">
<title>upload</title>
<path fill="#fdebd0" stroke="black" stroke-width="1.2" d="M239.5,-174C239.5,-174 103.5,-174 103.5,-174 97.5,-174 91.5,-168 91.5,-162 91.5,-162 91.5,-150 91.5,-150 91.5,-144 97.5,-138 103.5,-138 103.5,-138 239.5,-138 239.5,-138 245.5,-138 251.5,-144 251.5,-150 251.5,-150 251.5,-162 251.5,-162 251.5,-168 245.5,-174 239.5,-174"/>
<text text-anchor="middle" x="171.5" y="-159" font-family="DejaVu Sans" font-size="10.00">Host_Communication::</text>
<text text-anchor="middle" x="171.5" y="-148" font-family="DejaVu Sans" font-size="10.00">upload_frame_*() &#160;&#45;&gt; host PC</text>
</g>
<!-- hostq&#45;&gt;upload -->
<g id="edge14" class="edge">
<title>hostq&#45;&gt;upload</title>
<path fill="none" stroke="#555555" d="M228.71,-223.25C217.87,-210.69 204.18,-194.84 192.92,-181.8"/>
<polygon fill="#555555" stroke="#555555" points="195.45,-179.38 186.26,-174.1 190.15,-183.95 195.45,-179.38"/>
<text text-anchor="middle" x="215.5" y="-192.8" font-family="DejaVu Sans" font-size="9.00">yes</text>
</g>
<!-- reqbuf -->
<g id="node14" class="node">
<title>reqbuf</title>
<path fill="#fdebd0" stroke="black" stroke-width="1.2" d="M296.5,-105C296.5,-105 228.5,-105 228.5,-105 222.5,-105 216.5,-99 216.5,-93 216.5,-93 216.5,-81 216.5,-81 216.5,-75 222.5,-69 228.5,-69 228.5,-69 296.5,-69 296.5,-69 302.5,-69 308.5,-75 308.5,-81 308.5,-81 308.5,-93 308.5,-93 308.5,-99 302.5,-105 296.5,-105"/>
<text text-anchor="middle" x="262.5" y="-90" font-family="DejaVu Sans" font-size="10.00">VIDIOC_QBUF</text>
<text text-anchor="middle" x="262.5" y="-79" font-family="DejaVu Sans" font-size="10.00">re&#45;queue buffer</text>
</g>
<!-- hostq&#45;&gt;reqbuf -->
<g id="edge16" class="edge">
<title>hostq&#45;&gt;reqbuf</title>
<path fill="none" stroke="#555555" d="M254.45,-218.57C257.59,-205.3 260.94,-188.91 262.5,-174 264.54,-154.51 264.48,-132.4 263.95,-115.48"/>
<polygon fill="#555555" stroke="#555555" points="267.44,-115.04 263.55,-105.19 260.44,-115.32 267.44,-115.04"/>
<text text-anchor="middle" x="269.5" y="-153.8" font-family="DejaVu Sans" font-size="9.00">no</text>
</g>
<!-- upload&#45;&gt;reqbuf -->
<g id="edge15" class="edge">
<title>upload&#45;&gt;reqbuf</title>
<path fill="none" stroke="#555555" d="M194.93,-137.75C205.87,-129.7 219.04,-120 230.85,-111.31"/>
<polygon fill="#555555" stroke="#555555" points="233.17,-113.94 239.14,-105.2 229.02,-108.31 233.17,-113.94"/>
</g>
<!-- loop -->
<g id="node15" class="node">
<title>loop</title>
<ellipse fill="#f8c471" stroke="black" stroke-width="1.2" cx="262.5" cy="-18" rx="41.59" ry="18"/>
<text text-anchor="middle" x="262.5" y="-15.5" font-family="DejaVu Sans" font-size="10.00">next frame</text>
</g>
<!-- reqbuf&#45;&gt;loop -->
<g id="edge17" class="edge">
<title>reqbuf&#45;&gt;loop</title>
<path fill="none" stroke="#555555" d="M262.5,-68.75C262.5,-62 262.5,-54.09 262.5,-46.59"/>
<polygon fill="#555555" stroke="#555555" points="266,-46.43 262.5,-36.43 259,-46.43 266,-46.43"/>
</g>
<!-- loop&#45;&gt;poll -->
<g id="edge18" class="edge">
<title>loop&#45;&gt;poll</title>
<path fill="none" stroke="#555555" stroke-dasharray="5,2" d="M285.72,-33.22C297.88,-41.96 311.81,-54.3 319.5,-69 447.49,-313.62 395.88,-413 371.5,-688 363.25,-781.09 385.46,-816.66 334.5,-895 327.43,-905.87 317.08,-914.98 306.35,-922.31"/>
<polygon fill="#555555" stroke="#555555" points="304.27,-919.48 297.71,-927.81 308.03,-925.39 304.27,-919.48"/>
<text text-anchor="middle" x="411.5" y="-480.8" font-family="DejaVu Sans" font-size="9.00">repeat</text>
</g>
</g>
</svg>
