<?xml version="1.0" encoding="UTF-8" standalone="no"?>
<!DOCTYPE svg PUBLIC "-//W3C//DTD SVG 1.1//EN"
 "http://www.w3.org/Graphics/SVG/1.1/DTD/svg11.dtd">
<!-- Generated by graphviz version 2.43.0 (0)
 -->
<!-- Title: SpadisQT_DataFlow Pages: 1 -->
<svg width="1559pt" height="327pt"
 viewBox="0.00 0.00 1559.00 327.00" xmlns="http://www.w3.org/2000/svg" xmlns:xlink="http://www.w3.org/1999/xlink">
<g id="graph0" class="graph" transform="scale(1 1) rotate(0) translate(4 323)">
<title>SpadisQT_DataFlow</title>
<polygon fill="white" stroke="transparent" points="-4,4 -4,-323 1555,-323 1555,4 -4,4"/>
<text text-anchor="middle" x="775.5" y="-303.8" font-family="DejaVu Sans Bold" font-size="14.00">SpadisQT frame pipeline: &#160;raw MIPI &#45;&gt; depth / grayscale / point cloud &#45;&gt; display &amp; host</text>
<!-- sensor -->
<g id="node1" class="node">
<title>sensor</title>
<polygon fill="#aed6f1" stroke="black" stroke-width="1.2" points="66,-166 4,-166 0,-162 0,-130 62,-130 66,-134 66,-166"/>
<polyline fill="none" stroke="black" stroke-width="1.2" points="62,-162 0,-162 "/>
<polyline fill="none" stroke="black" stroke-width="1.2" points="62,-162 62,-130 "/>
<polyline fill="none" stroke="black" stroke-width="1.2" points="62,-162 66,-166 "/>
<text text-anchor="middle" x="33" y="-151.2" font-family="DejaVu Sans" font-size="11.00">ADS6401</text>
<text text-anchor="middle" x="33" y="-139.2" font-family="DejaVu Sans" font-size="11.00">sensor</text>
</g>
<!-- v4l2 -->
<g id="node2" class="node">
<title>v4l2</title>
<path fill="#fdebd0" stroke="black" stroke-width="1.2" d="M245,-170C245,-170 167,-170 167,-170 161,-170 155,-164 155,-158 155,-158 155,-138 155,-138 155,-132 161,-126 167,-126 167,-126 245,-126 245,-126 251,-126 257,-132 257,-138 257,-138 257,-158 257,-158 257,-164 251,-170 245,-170"/>
<text text-anchor="middle" x="206" y="-157.2" font-family="DejaVu Sans" font-size="11.00">V4L2</text>
<text text-anchor="middle" x="206" y="-145.2" font-family="DejaVu Sans" font-size="11.00">mmap dequeue</text>
<text text-anchor="middle" x="206" y="-133.2" font-family="DejaVu Sans" font-size="11.00">(/dev/video0)</text>
</g>
<!-- sensor&#45;&gt;v4l2 -->
<g id="edge1" class="edge">
<title>sensor&#45;&gt;v4l2</title>
<path fill="none" stroke="#555555" d="M66.16,-148C88.2,-148 118.1,-148 144.52,-148"/>
<polygon fill="#555555" stroke="#555555" points="144.82,-151.5 154.82,-148 144.82,-144.5 144.82,-151.5"/>
<text text-anchor="middle" x="110.5" y="-160.8" font-family="DejaVu Sans" font-size="9.00">MIPI raw</text>
<text text-anchor="middle" x="110.5" y="-150.8" font-family="DejaVu Sans" font-size="9.00">SBGGR8</text>
</g>
<!-- fpt -->
<g id="node3" class="node">
<title>fpt</title>
<path fill="#f8c471" stroke="black" stroke-width="1.2" d="M490,-170C490,-170 383,-170 383,-170 377,-170 371,-164 371,-158 371,-158 371,-138 371,-138 371,-132 377,-126 383,-126 383,-126 490,-126 490,-126 496,-126 502,-132 502,-138 502,-138 502,-158 502,-158 502,-164 496,-170 490,-170"/>
<text text-anchor="middle" x="436.5" y="-157.2" font-family="DejaVu Sans" font-size="11.00">FrameProcessThread</text>
<text text-anchor="middle" x="436.5" y="-145.2" font-family="DejaVu Sans" font-size="11.00">run() loop</text>
<text text-anchor="middle" x="436.5" y="-133.2" font-family="DejaVu Sans" font-size="11.00">(QThread)</text>
</g>
<!-- v4l2&#45;&gt;fpt -->
<g id="edge2" class="edge">
<title>v4l2&#45;&gt;fpt</title>
<path fill="none" stroke="#e74c3c" d="M257.15,-148C287.39,-148 326.48,-148 360.37,-148"/>
<polygon fill="#e74c3c" stroke="#e74c3c" points="360.7,-151.5 370.7,-148 360.7,-144.5 360.7,-151.5"/>
<text text-anchor="middle" x="314" y="-150.8" font-family="DejaVu Sans" font-size="9.00" fill="#c0392b">rx_new_frame</text>
</g>
<!-- dtof -->
<g id="node4" class="node">
<title>dtof</title>
<path fill="#fdebd0" stroke="black" stroke-width="1.2" d="M717,-166C717,-166 611,-166 611,-166 605,-166 599,-160 599,-154 599,-154 599,-142 599,-142 599,-136 605,-130 611,-130 611,-130 717,-130 717,-130 723,-130 729,-136 729,-142 729,-142 729,-154 729,-154 729,-160 723,-166 717,-166"/>
<text text-anchor="middle" x="664" y="-151.2" font-family="DejaVu Sans" font-size="11.00">ADAPS_DTOF</text>
<text text-anchor="middle" x="664" y="-139.2" font-family="DejaVu Sans" font-size="11.00">dtof_frame_decode()</text>
</g>
<!-- fpt&#45;&gt;dtof -->
<g id="edge3" class="edge">
<title>fpt&#45;&gt;dtof</title>
<path fill="none" stroke="#555555" d="M502.12,-148C529.13,-148 560.67,-148 588.64,-148"/>
<polygon fill="#555555" stroke="#555555" points="588.76,-151.5 598.76,-148 588.76,-144.5 588.76,-151.5"/>
<text text-anchor="middle" x="550.5" y="-150.8" font-family="DejaVu Sans" font-size="9.00">raw buffer</text>
</g>
<!-- algo -->
<g id="node5" class="node">
<title>algo</title>
<path fill="#e5e7e9" stroke="black" stroke-width="1.2" d="M1069,-296C1069,-296 938,-296 938,-296 932,-296 926,-290 926,-284 926,-284 926,-272 926,-272 926,-266 932,-260 938,-260 938,-260 1069,-260 1069,-260 1075,-260 1081,-266 1081,-272 1081,-272 1081,-284 1081,-284 1081,-290 1075,-296 1069,-296"/>
<text text-anchor="middle" x="1003.5" y="-281.2" font-family="DejaVu Sans" font-size="11.00">libadaps_swift_decode.so</text>
<text text-anchor="middle" x="1003.5" y="-269.2" font-family="DejaVu Sans" font-size="11.00">(closed&#45;source algo)</text>
</g>
<!-- dtof&#45;&gt;algo -->
<g id="edge4" class="edge">
<title>dtof&#45;&gt;algo</title>
<path fill="none" stroke="#555555" d="M697.83,-172.21C714.1,-183.36 734.42,-196.07 754,-205 805.77,-228.6 867.07,-246.7 915.84,-258.98"/>
<polygon fill="#555555" stroke="#555555" points="699.44,-169.06 689.24,-166.21 695.43,-174.8 699.44,-169.06"/>
<polygon fill="#555555" stroke="#555555" points="915.18,-262.42 925.73,-261.43 916.87,-255.63 915.18,-262.42"/>
<text text-anchor="middle" x="827.5" y="-256.8" font-family="DejaVu Sans" font-size="9.00">DepthMapWrapperProcessFrame</text>
</g>
<!-- depth -->
<g id="node6" class="node">
<title>depth</title>
<polygon fill="#fcf3cf" stroke="black" stroke-width="1.2" points="1072,-231 929,-231 929,-195 1078,-195 1078,-225 1072,-231"/>
<polyline fill="none" stroke="black" stroke-width="1.2" points="1072,-231 1072,-225 "/>
<polyline fill="none" stroke="black" stroke-width="1.2" points="1078,-225 1072,-225 "/>
<text text-anchor="middle" x="1003.5" y="-216.2" font-family="DejaVu Sans" font-size="11.00">depth16 buffer</text>
<text text-anchor="middle" x="1003.5" y="-204.2" font-family="DejaVu Sans" font-size="11.00">(14&#45;bit dist + 2&#45;bit conf)</text>
</g>
<!-- dtof&#45;&gt;depth -->
<g id="edge5" class="edge">
<title>dtof&#45;&gt;depth</title>
<path fill="none" stroke="#555555" d="M729.04,-164.41C737.42,-166.38 745.9,-168.3 754,-170 808.61,-181.46 870.43,-192.16 918.74,-200.03"/>
<polygon fill="#555555" stroke="#555555" points="918.41,-203.52 928.84,-201.66 919.53,-196.61 918.41,-203.52"/>
</g>
<!-- gray -->
<g id="node7" class="node">
<title>gray</title>
<polygon fill="#fcf3cf" stroke="black" stroke-width="1.2" points="1050.5,-166 950.5,-166 950.5,-130 1056.5,-130 1056.5,-160 1050.5,-166"/>
<polyline fill="none" stroke="black" stroke-width="1.2" points="1050.5,-166 1050.5,-160 "/>
<polyline fill="none" stroke="black" stroke-width="1.2" points="1056.5,-160 1050.5,-160 "/>
<text text-anchor="middle" x="1003.5" y="-145.2" font-family="DejaVu Sans" font-size="11.00">grayscale buffer</text>
</g>
<!-- dtof&#45;&gt;gray -->
<g id="edge6" class="edge">
<title>dtof&#45;&gt;gray</title>
<path fill="none" stroke="#555555" d="M729.28,-148C789.93,-148 880.28,-148 940.26,-148"/>
<polygon fill="#555555" stroke="#555555" points="940.35,-151.5 950.35,-148 940.35,-144.5 940.35,-151.5"/>
</g>
<!-- pcloud -->
<g id="node8" class="node">
<title>pcloud</title>
<polygon fill="#fcf3cf" stroke="black" stroke-width="1.2" points="1036,-101 965,-101 965,-65 1042,-65 1042,-95 1036,-101"/>
<polyline fill="none" stroke="black" stroke-width="1.2" points="1036,-101 1036,-95 "/>
<polyline fill="none" stroke="black" stroke-width="1.2" points="1042,-95 1036,-95 "/>
<text text-anchor="middle" x="1003.5" y="-86.2" font-family="DejaVu Sans" font-size="11.00">point cloud</text>
<text text-anchor="middle" x="1003.5" y="-74.2" font-family="DejaVu Sans" font-size="11.00">(pc_pkt_t)</text>
</g>
<!-- dtof&#45;&gt;pcloud -->
<g id="edge7" class="edge">
<title>dtof&#45;&gt;pcloud</title>
<path fill="none" stroke="#555555" d="M729.28,-135.62C794.95,-122.97 895.43,-103.62 954.49,-92.25"/>
<polygon fill="#555555" stroke="#555555" points="955.5,-95.62 964.66,-90.29 954.18,-88.74 955.5,-95.62"/>
</g>
<!-- hist -->
<g id="node9" class="node">
<title>hist</title>
<polygon fill="#fcf3cf" stroke="black" stroke-width="1.2" points="1051,-36 950,-36 950,0 1057,0 1057,-30 1051,-36"/>
<polyline fill="none" stroke="black" stroke-width="1.2" points="1051,-36 1051,-30 "/>
<polyline fill="none" stroke="black" stroke-width="1.2" points="1057,-30 1051,-30 "/>
<text text-anchor="middle" x="1003.5" y="-21.2" font-family="DejaVu Sans" font-size="11.00">spot histogram</text>
<text text-anchor="middle" x="1003.5" y="-9.2" font-family="DejaVu Sans" font-size="11.00">(SpotHistogram)</text>
</g>
<!-- dtof&#45;&gt;hist -->
<g id="edge8" class="edge">
<title>dtof&#45;&gt;hist</title>
<path fill="none" stroke="#555555" d="M693.05,-129.87C710.19,-119.32 732.81,-106.31 754,-97 815.39,-70.02 888.93,-47.81 940.01,-33.89"/>
<polygon fill="#555555" stroke="#555555" points="941.18,-37.2 949.92,-31.22 939.35,-30.44 941.18,-37.2"/>
</g>
<!-- colormap -->
<g id="node10" class="node">
<title>colormap</title>
<path fill="#fdebd0" stroke="black" stroke-width="1.2" d="M1290,-231C1290,-231 1144,-231 1144,-231 1138,-231 1132,-225 1132,-219 1132,-219 1132,-207 1132,-207 1132,-201 1138,-195 1144,-195 1144,-195 1290,-195 1290,-195 1296,-195 1302,-201 1302,-207 1302,-207 1302,-219 1302,-219 1302,-225 1296,-231 1290,-231"/>
<text text-anchor="middle" x="1217" y="-216.2" font-family="DejaVu Sans" font-size="11.00">ConvertDepthToColoredMap</text>
<text text-anchor="middle" x="1217" y="-204.2" font-family="DejaVu Sans" font-size="11.00">&#45;&gt; QImage (RGB)</text>
</g>
<!-- depth&#45;&gt;colormap -->
<g id="edge9" class="edge">
<title>depth&#45;&gt;colormap</title>
<path fill="none" stroke="#555555" d="M1078.18,-213C1092.22,-213 1107.1,-213 1121.68,-213"/>
<polygon fill="#555555" stroke="#555555" points="1121.72,-216.5 1131.72,-213 1121.72,-209.5 1121.72,-216.5"/>
</g>
<!-- hostc -->
<g id="node12" class="node">
<title>hostc</title>
<path fill="#fdebd0" stroke="black" stroke-width="1.2" d="M1271.5,-122C1271.5,-122 1162.5,-122 1162.5,-122 1156.5,-122 1150.5,-116 1150.5,-110 1150.5,-110 1150.5,-98 1150.5,-98 1150.5,-92 1156.5,-86 1162.5,-86 1162.5,-86 1271.5,-86 1271.5,-86 1277.5,-86 1283.5,-92 1283.5,-98 1283.5,-98 1283.5,-110 1283.5,-110 1283.5,-116 1277.5,-122 1271.5,-122"/>
<text text-anchor="middle" x="1217" y="-107.2" font-family="DejaVu Sans" font-size="11.00">Host_Communication</text>
<text text-anchor="middle" x="1217" y="-95.2" font-family="DejaVu Sans" font-size="11.00">upload_frame_*()</text>
</g>
<!-- depth&#45;&gt;hostc -->
<g id="edge11" class="edge">
<title>depth&#45;&gt;hostc</title>
<path fill="none" stroke="#555555" stroke-dasharray="5,2" d="M1050.22,-194.95C1060.45,-190.61 1071.18,-185.83 1081,-181 1114.61,-164.46 1151.46,-143.22 1178.16,-127.24"/>
<polygon fill="#555555" stroke="#555555" points="1180.04,-130.19 1186.8,-122.04 1176.43,-124.19 1180.04,-130.19"/>
</g>
<!-- gray&#45;&gt;hostc -->
<g id="edge13" class="edge">
<title>gray&#45;&gt;hostc</title>
<path fill="none" stroke="#555555" stroke-dasharray="5,2" d="M1056.51,-137.18C1081.67,-131.95 1112.37,-125.56 1140.08,-119.79"/>
<polygon fill="#555555" stroke="#555555" points="1141.06,-123.16 1150.14,-117.7 1139.64,-116.31 1141.06,-123.16"/>
</g>
<!-- pcloud&#45;&gt;hostc -->
<g id="edge12" class="edge">
<title>pcloud&#45;&gt;hostc</title>
<path fill="none" stroke="#555555" stroke-dasharray="5,2" d="M1042.31,-86.75C1069.45,-89.45 1106.93,-93.17 1140.13,-96.47"/>
<polygon fill="#555555" stroke="#555555" points="1139.99,-99.97 1150.28,-97.48 1140.68,-93 1139.99,-99.97"/>
</g>
<!-- hist&#45;&gt;hostc -->
<g id="edge14" class="edge">
<title>hist&#45;&gt;hostc</title>
<path fill="none" stroke="#555555" stroke-dasharray="5,2" d="M1048.84,-36.03C1081.83,-49.44 1127.03,-67.82 1162.11,-82.09"/>
<polygon fill="#555555" stroke="#555555" points="1161.14,-85.47 1171.72,-86 1163.78,-78.99 1161.14,-85.47"/>
</g>
<!-- display -->
<g id="node11" class="node">
<title>display</title>
<path fill="#d2b4de" stroke="black" stroke-width="1.2" d="M1539,-231C1539,-231 1477,-231 1477,-231 1471,-231 1465,-225 1465,-219 1465,-219 1465,-207 1465,-207 1465,-201 1471,-195 1477,-195 1477,-195 1539,-195 1539,-195 1545,-195 1551,-201 1551,-207 1551,-207 1551,-219 1551,-219 1551,-225 1545,-231 1539,-231"/>
<text text-anchor="middle" x="1508" y="-216.2" font-family="DejaVu Sans" font-size="11.00">MainWindow</text>
<text text-anchor="middle" x="1508" y="-204.2" font-family="DejaVu Sans" font-size="11.00">GUI display</text>
</g>
<!-- colormap&#45;&gt;display -->
<g id="edge10" class="edge">
<title>colormap&#45;&gt;display</title>
<path fill="none" stroke="#e74c3c" d="M1302.37,-213C1351.62,-213 1412.22,-213 1454.64,-213"/>
<polygon fill="#e74c3c" stroke="#e74c3c" points="1454.74,-216.5 1464.74,-213 1454.74,-209.5 1454.74,-216.5"/>
<text text-anchor="middle" x="1383.5" y="-215.8" font-family="DejaVu Sans" font-size="9.00" fill="#c0392b">newFrameReady4Display</text>
</g>
<!-- host -->
<g id="node13" class="node">
<title>host</title>
<path fill="#e8daef" stroke="black" stroke-width="1.2" d="M1538.5,-122C1538.5,-122 1477.5,-122 1477.5,-122 1471.5,-122 1465.5,-116 1465.5,-110 1465.5,-110 1465.5,-98 1465.5,-98 1465.5,-92 1471.5,-86 1477.5,-86 1477.5,-86 1538.5,-86 1538.5,-86 1544.5,-86 1550.5,-92 1550.5,-98 1550.5,-98 1550.5,-110 1550.5,-110 1550.5,-116 1544.5,-122 1538.5,-122"/>
<text text-anchor="middle" x="1508" y="-101.2" font-family="DejaVu Sans" font-size="11.00">Host PC tool</text>
</g>
<!-- hostc&#45;&gt;host -->
<g id="edge15" class="edge">
<title>hostc&#45;&gt;host</title>
<path fill="none" stroke="#555555" d="M1293.61,-104C1344.49,-104 1410.25,-104 1455.24,-104"/>
<polygon fill="#555555" stroke="#555555" points="1293.58,-100.5 1283.58,-104 1293.58,-107.5 1293.58,-100.5"/>
<polygon fill="#555555" stroke="#555555" points="1455.36,-107.5 1465.36,-104 1455.36,-100.5 1455.36,-107.5"/>
<text text-anchor="middle" x="1383.5" y="-116.8" font-family="DejaVu Sans" font-size="9.00">libAdapsSender.so</text>
<text text-anchor="middle" x="1383.5" y="-106.8" font-family="DejaVu Sans" font-size="9.00">USB / network</text>
</g>
</g>
</svg>
