<?xml version="1.0" encoding="UTF-8" standalone="no"?>
<!DOCTYPE svg PUBLIC "-//W3C//DTD SVG 1.1//EN"
 "http://www.w3.org/Graphics/SVG/1.1/DTD/svg11.dtd">
<!-- Generated by graphviz version 2.43.0 (0)
 -->
<!-- Title: SpadisQT_Deployment Pages: 1 -->
<svg width="1015pt" height="398pt"
 viewBox="0.00 0.00 1015.00 398.00" xmlns="http://www.w3.org/2000/svg" xmlns:xlink="http://www.w3.org/1999/xlink">
<g id="graph0" class="graph" transform="scale(1 1) rotate(0) translate(4 394)">
<title>SpadisQT_Deployment</title>
<polygon fill="white" stroke="transparent" points="-4,4 -4,-394 1011,-394 1011,4 -4,4"/>
<text text-anchor="middle" x="503.5" y="-375.6" font-family="DejaVu Sans Bold" font-size="13.00">SpadisQT — build &amp; deployment layout</text>
<g id="clust1" class="cluster">
<title>cluster_build</title>
<path fill="#f2f3f4" stroke="#7f8c8d" d="M20,-215C20,-215 467,-215 467,-215 473,-215 479,-221 479,-227 479,-227 479,-285 479,-285 479,-291 473,-297 467,-297 467,-297 20,-297 20,-297 14,-297 8,-291 8,-285 8,-285 8,-227 8,-227 8,-221 14,-215 20,-215"/>
<text text-anchor="middle" x="243.5" y="-282.6" font-family="DejaVu Sans Bold" font-size="13.00" fill="#566573">Build host &#160;(x86_64 Linux)</text>
</g>
<g id="clust2" class="cluster">
<title>cluster_board</title>
<path fill="#ebf5fb" stroke="#2980b9" d="M590,-8C590,-8 987,-8 987,-8 993,-8 999,-14 999,-20 999,-20 999,-348 999,-348 999,-354 993,-360 987,-360 987,-360 590,-360 590,-360 584,-360 578,-354 578,-348 578,-348 578,-20 578,-20 578,-14 584,-8 590,-8"/>
<text text-anchor="middle" x="788.5" y="-345.6" font-family="DejaVu Sans Bold" font-size="13.00" fill="#1f618d">Target board &#160;(RK3568, Linux 5.10, login root/rockchip)</text>
</g>
<!-- toolchain -->
<g id="node1" class="node">
<title>toolchain</title>
<path fill="#e5e7e9" stroke="black" stroke-width="1.2" d="M176,-263C176,-263 28,-263 28,-263 22,-263 16,-257 16,-251 16,-251 16,-239 16,-239 16,-233 22,-227 28,-227 28,-227 176,-227 176,-227 182,-227 188,-233 188,-239 188,-239 188,-251 188,-251 188,-257 182,-263 176,-263"/>
<text text-anchor="middle" x="102" y="-248.2" font-family="DejaVu Sans" font-size="11.00">aarch64 Qt5 cross&#45;toolchain</text>
<text text-anchor="middle" x="102" y="-236.2" font-family="DejaVu Sans" font-size="11.00">qmake + make</text>
</g>
<!-- artifacts -->
<g id="node2" class="node">
<title>artifacts</title>
<polygon fill="#fcf3cf" stroke="black" stroke-width="1.2" points="465,-267 271,-267 271,-223 471,-223 471,-261 465,-267"/>
<polyline fill="none" stroke="black" stroke-width="1.2" points="465,-267 465,-261 "/>
<polyline fill="none" stroke="black" stroke-width="1.2" points="471,-261 465,-261 "/>
<text text-anchor="middle" x="371" y="-254.2" font-family="DejaVu Sans" font-size="11.00">Build output:</text>
<text text-anchor="middle" x="371" y="-242.2" font-family="DejaVu Sans" font-size="11.00">SpadisQT, SpadisQT_console</text>
<text text-anchor="middle" x="371" y="-230.2" font-family="DejaVu Sans" font-size="11.00">+ *.so + adapsdepthsettings.xml</text>
</g>
<!-- toolchain&#45;&gt;artifacts -->
<g id="edge1" class="edge">
<title>toolchain&#45;&gt;artifacts</title>
<path fill="none" stroke="#555555" d="M188.21,-245C211.18,-245 236.36,-245 260.45,-245"/>
<polygon fill="#555555" stroke="#555555" points="260.7,-248.5 270.7,-245 260.7,-241.5 260.7,-248.5"/>
<text text-anchor="middle" x="229.5" y="-248" font-family="DejaVu Sans" font-size="10.00">build</text>
</g>
<!-- bin -->
<g id="node3" class="node">
<title>bin</title>
<path fill="#aed6f1" stroke="black" stroke-width="1.2" d="M838,-330C838,-330 739,-330 739,-330 733,-330 727,-324 727,-318 727,-318 727,-298 727,-298 727,-292 733,-286 739,-286 739,-286 838,-286 838,-286 844,-286 850,-292 850,-298 850,-298 850,-318 850,-318 850,-324 844,-330 838,-330"/>
<text text-anchor="middle" x="788.5" y="-317.2" font-family="DejaVu Sans" font-size="11.00">/usr/bin/</text>
<text text-anchor="middle" x="788.5" y="-305.2" font-family="DejaVu Sans" font-size="11.00"> &#160;SpadisQT</text>
<text text-anchor="middle" x="788.5" y="-293.2" font-family="DejaVu Sans" font-size="11.00"> &#160;SpadisQT_console</text>
</g>
<!-- artifacts&#45;&gt;bin -->
<g id="edge6" class="edge">
<title>artifacts&#45;&gt;bin</title>
<path fill="none" stroke="#27ae60" stroke-width="1.6" d="M471.26,-260.05C546.95,-271.53 649.35,-287.05 716.86,-297.29"/>
<polygon fill="#27ae60" stroke="#27ae60" stroke-width="1.6" points="716.56,-300.78 726.97,-298.82 717.61,-293.86 716.56,-300.78"/>
<text text-anchor="middle" x="535" y="-277" font-family="DejaVu Sans" font-size="10.00" fill="#1e8449">scp / adb push</text>
</g>
<!-- lib -->
<g id="node4" class="node">
<title>lib</title>
<path fill="#aed6f1" stroke="black" stroke-width="1.2" d="M858,-242C858,-242 719,-242 719,-242 713,-242 707,-236 707,-230 707,-230 707,-210 707,-210 707,-204 713,-198 719,-198 719,-198 858,-198 858,-198 864,-198 870,-204 870,-210 870,-210 870,-230 870,-230 870,-236 864,-242 858,-242"/>
<text text-anchor="middle" x="788.5" y="-229.2" font-family="DejaVu Sans" font-size="11.00">/vendor/lib64/</text>
<text text-anchor="middle" x="788.5" y="-217.2" font-family="DejaVu Sans" font-size="11.00"> &#160;libadaps_swift_decode.so</text>
<text text-anchor="middle" x="788.5" y="-205.2" font-family="DejaVu Sans" font-size="11.00"> &#160;libAdapsSender.so</text>
</g>
<!-- artifacts&#45;&gt;lib -->
<g id="edge7" class="edge">
<title>artifacts&#45;&gt;lib</title>
<path fill="none" stroke="#27ae60" stroke-width="1.6" d="M471.26,-239.03C539.76,-234.91 630.13,-229.47 696.72,-225.46"/>
<polygon fill="#27ae60" stroke="#27ae60" stroke-width="1.6" points="697.01,-228.95 706.78,-224.86 696.59,-221.96 697.01,-228.95"/>
<text text-anchor="middle" x="535" y="-240" font-family="DejaVu Sans" font-size="10.00" fill="#1e8449">scp / adb push</text>
</g>
<!-- etc -->
<g id="node5" class="node">
<title>etc</title>
<path fill="#aed6f1" stroke="black" stroke-width="1.2" d="M855,-176C855,-176 722,-176 722,-176 716,-176 710,-170 710,-164 710,-164 710,-152 710,-152 710,-146 716,-140 722,-140 722,-140 855,-140 855,-140 861,-140 867,-146 867,-152 867,-152 867,-164 867,-164 867,-170 861,-176 855,-176"/>
<text text-anchor="middle" x="788.5" y="-161.2" font-family="DejaVu Sans" font-size="11.00">/vendor/etc/camera/</text>
<text text-anchor="middle" x="788.5" y="-149.2" font-family="DejaVu Sans" font-size="11.00"> &#160;adapsdepthsettings.xml</text>
</g>
<!-- artifacts&#45;&gt;etc -->
<g id="edge8" class="edge">
<title>artifacts&#45;&gt;etc</title>
<path fill="none" stroke="#27ae60" stroke-width="1.6" d="M395.68,-222.69C419.78,-201.63 459.3,-171.48 500,-159 564.71,-139.16 641.54,-140.06 699.49,-145.29"/>
<polygon fill="#27ae60" stroke="#27ae60" stroke-width="1.6" points="699.42,-148.8 709.71,-146.28 700.1,-141.83 699.42,-148.8"/>
<text text-anchor="middle" x="535" y="-162" font-family="DejaVu Sans" font-size="10.00" fill="#1e8449">scp / adb push</text>
</g>
<!-- bin&#45;&gt;lib -->
<g id="edge2" class="edge">
<title>bin&#45;&gt;lib</title>
<path fill="none" stroke="#555555" stroke-dasharray="5,2" d="M788.5,-285.8C788.5,-275.69 788.5,-263.53 788.5,-252.43"/>
<polygon fill="#555555" stroke="#555555" points="792,-252.21 788.5,-242.21 785,-252.21 792,-252.21"/>
<text text-anchor="middle" x="780" y="-261.5" font-family="DejaVu Sans" font-size="10.00">rpath /vendor/lib64</text>
</g>
<!-- bin&#45;&gt;etc -->
<g id="edge3" class="edge">
<title>bin&#45;&gt;etc</title>
<path fill="none" stroke="#555555" stroke-dasharray="5,2" d="M726.82,-305.42C642.89,-299.23 507.42,-278.16 547,-206.5 575.48,-154.94 643.22,-144.82 699.73,-146.48"/>
<polygon fill="#555555" stroke="#555555" points="699.64,-149.98 709.77,-146.9 699.93,-142.98 699.64,-149.98"/>
<text text-anchor="middle" x="535" y="-209.5" font-family="DejaVu Sans" font-size="10.00">reads config</text>
</g>
<!-- data -->
<g id="node6" class="node">
<title>data</title>
<path fill="#d4e6f1" stroke="black" stroke-width="1.2" d="M844.5,-118C844.5,-118 732.5,-118 732.5,-118 726.5,-118 720.5,-112 720.5,-106 720.5,-106 720.5,-94 720.5,-94 720.5,-88 726.5,-82 732.5,-82 732.5,-82 844.5,-82 844.5,-82 850.5,-82 856.5,-88 856.5,-94 856.5,-94 856.5,-106 856.5,-106 856.5,-112 850.5,-118 844.5,-118"/>
<text text-anchor="middle" x="788.5" y="-103.2" font-family="DejaVu Sans" font-size="11.00">/data/vendor/camera/</text>
<text text-anchor="middle" x="788.5" y="-91.2" font-family="DejaVu Sans" font-size="11.00"> &#160;(runtime dump dir)</text>
</g>
<!-- bin&#45;&gt;data -->
<g id="edge5" class="edge">
<title>bin&#45;&gt;data</title>
<path fill="none" stroke="#555555" stroke-dasharray="5,2" d="M726.8,-306.89C680.44,-302.85 618.26,-290.13 578,-253 556.75,-233.4 555.9,-219.11 560,-190.5 564.04,-162.31 556.43,-147.6 578,-129 613.77,-98.16 666.41,-90.91 710.1,-91.38"/>
<polygon fill="#555555" stroke="#555555" points="710.05,-94.88 720.14,-91.62 710.22,-87.88 710.05,-94.88"/>
<text text-anchor="middle" x="535" y="-193.5" font-family="DejaVu Sans" font-size="10.00">dumps</text>
</g>
<!-- dev -->
<g id="node7" class="node">
<title>dev</title>
<path fill="#d4e6f1" stroke="black" stroke-width="1.2" d="M831,-60C831,-60 746,-60 746,-60 740,-60 734,-54 734,-48 734,-48 734,-28 734,-28 734,-22 740,-16 746,-16 746,-16 831,-16 831,-16 837,-16 843,-22 843,-28 843,-28 843,-48 843,-48 843,-54 837,-60 831,-60"/>
<text text-anchor="middle" x="788.5" y="-47.2" font-family="DejaVu Sans" font-size="11.00">/dev/</text>
<text text-anchor="middle" x="788.5" y="-35.2" font-family="DejaVu Sans" font-size="11.00"> &#160;video0 &#160;media0</text>
<text text-anchor="middle" x="788.5" y="-23.2" font-family="DejaVu Sans" font-size="11.00"> &#160;ads6401</text>
</g>
<!-- bin&#45;&gt;dev -->
<g id="edge4" class="edge">
<title>bin&#45;&gt;dev</title>
<path fill="none" stroke="#555555" stroke-dasharray="5,2" d="M726.66,-308.11C679.59,-304.78 616.55,-292.44 578,-253 553.11,-227.54 559.27,-210 562,-174.5 565.57,-128.09 545.12,-103.95 578,-71 615.37,-33.55 676.67,-27.65 723.51,-29.73"/>
<polygon fill="#555555" stroke="#555555" points="723.39,-33.23 733.58,-30.3 723.79,-26.24 723.39,-33.23"/>
<text text-anchor="middle" x="535" y="-177.5" font-family="DejaVu Sans" font-size="10.00">opens</text>
</g>
</g>
</svg>
