<?xml version="1.0" encoding="UTF-8" standalone="no"?>
<!DOCTYPE svg PUBLIC "-//W3C//DTD SVG 1.1//EN"
 "http://www.w3.org/Graphics/SVG/1.1/DTD/svg11.dtd">
<!-- Generated by graphviz version 2.43.0 (0)
 -->
<!-- Title: SpadisQT_Threading Pages: 1 -->
<svg width="693pt" height="348pt"
 viewBox="0.00 0.00 693.00 347.97" xmlns="http://www.w3.org/2000/svg" xmlns:xlink="http://www.w3.org/1999/xlink">
<g id="graph0" class="graph" transform="scale(1 1) rotate(0) translate(4 343.97)">
<title>SpadisQT_Threading</title>
<polygon fill="white" stroke="transparent" points="-4,4 -4,-343.97 689,-343.97 689,4 -4,4"/>
<text text-anchor="middle" x="342.5" y="-325.57" font-family="DejaVu Sans Bold" font-size="13.00">SpadisQT — threads and Qt signal/slot connections</text>
<g id="clust1" class="cluster">
<title>cluster_main</title>
<path fill="#f5eef8" stroke="#9b59b6" d="M472,-22.97C472,-22.97 673,-22.97 673,-22.97 679,-22.97 685,-28.97 685,-34.97 685,-34.97 685,-206.97 685,-206.97 685,-212.97 679,-218.97 673,-218.97 673,-218.97 472,-218.97 472,-218.97 466,-218.97 460,-212.97 460,-206.97 460,-206.97 460,-34.97 460,-34.97 460,-28.97 466,-22.97 472,-22.97"/>
<text text-anchor="middle" x="572.5" y="-204.57" font-family="DejaVu Sans Bold" font-size="13.00" fill="#6c3483">Main thread &#160;(Qt event loop)</text>
</g>
<g id="clust2" class="cluster">
<title>cluster_worker</title>
<path fill="#fef5e7" stroke="#e67e22" d="M20,-226.97C20,-226.97 609,-226.97 609,-226.97 615,-226.97 621,-232.97 621,-238.97 621,-238.97 621,-297.97 621,-297.97 621,-303.97 615,-309.97 609,-309.97 609,-309.97 20,-309.97 20,-309.97 14,-309.97 8,-303.97 8,-297.97 8,-297.97 8,-238.97 8,-238.97 8,-232.97 14,-226.97 20,-226.97"/>
<text text-anchor="middle" x="314.5" y="-295.57" font-family="DejaVu Sans Bold" font-size="13.00" fill="#b9770e">FrameProcessThread &#160;(worker QThread)</text>
</g>
<!-- app -->
<g id="node1" class="node">
<title>app</title>
<path fill="#e8daef" stroke="black" stroke-width="1.2" d="M650,-188.97C650,-188.97 494,-188.97 494,-188.97 488,-188.97 482,-182.97 482,-176.97 482,-176.97 482,-164.97 482,-164.97 482,-158.97 488,-152.97 494,-152.97 494,-152.97 650,-152.97 650,-152.97 656,-152.97 662,-158.97 662,-164.97 662,-164.97 662,-176.97 662,-176.97 662,-182.97 656,-188.97 650,-188.97"/>
<text text-anchor="middle" x="572" y="-173.97" font-family="DejaVu Sans" font-size="10.00">GlobalApplication</text>
<text text-anchor="middle" x="572" y="-162.97" font-family="DejaVu Sans" font-size="10.00">(QApplication / QCoreApplication)</text>
</g>
<!-- mainwin -->
<g id="node2" class="node">
<title>mainwin</title>
<path fill="#e8daef" stroke="black" stroke-width="1.2" d="M629.5,-66.97C629.5,-66.97 514.5,-66.97 514.5,-66.97 508.5,-66.97 502.5,-60.97 502.5,-54.97 502.5,-54.97 502.5,-42.97 502.5,-42.97 502.5,-36.97 508.5,-30.97 514.5,-30.97 514.5,-30.97 629.5,-30.97 629.5,-30.97 635.5,-30.97 641.5,-36.97 641.5,-42.97 641.5,-42.97 641.5,-54.97 641.5,-54.97 641.5,-60.97 635.5,-66.97 629.5,-66.97"/>
<text text-anchor="middle" x="572" y="-51.97" font-family="DejaVu Sans" font-size="10.00">MainWindow</text>
<text text-anchor="middle" x="572" y="-40.97" font-family="DejaVu Sans" font-size="10.00">(GUI; console = QObject)</text>
</g>
<!-- fpt -->
<g id="node4" class="node">
<title>fpt</title>
<path fill="#f8c471" stroke="black" stroke-width="1.2" d="M276,-270.97C276,-270.97 196,-270.97 196,-270.97 190,-270.97 184,-264.97 184,-258.97 184,-258.97 184,-246.97 184,-246.97 184,-240.97 190,-234.97 196,-234.97 196,-234.97 276,-234.97 276,-234.97 282,-234.97 288,-240.97 288,-246.97 288,-246.97 288,-258.97 288,-258.97 288,-264.97 282,-270.97 276,-270.97"/>
<text text-anchor="middle" x="236" y="-250.47" font-family="DejaVu Sans" font-size="10.00">run() capture loop</text>
</g>
<!-- mainwin&#45;&gt;fpt -->
<g id="edge6" class="edge">
<title>mainwin&#45;&gt;fpt</title>
<path fill="none" stroke="#555555" stroke-dasharray="5,2" d="M502.27,-61.23C487.7,-65.53 472.85,-71.28 460,-78.97 450.56,-84.62 452.57,-91.53 443,-96.97 391.53,-126.21 360.99,-91.31 313,-125.97 278.9,-150.6 257.34,-195.66 246.22,-224.95"/>
<polygon fill="#555555" stroke="#555555" points="242.84,-224 242.72,-234.59 249.42,-226.39 242.84,-224"/>
<text text-anchor="middle" x="378" y="-128.77" font-family="DejaVu Sans" font-size="9.00">stop() / control</text>
</g>
<!-- hostc -->
<g id="node3" class="node">
<title>hostc</title>
<path fill="#e8daef" stroke="black" stroke-width="1.2" d="M621,-127.97C621,-127.97 523,-127.97 523,-127.97 517,-127.97 511,-121.97 511,-115.97 511,-115.97 511,-103.97 511,-103.97 511,-97.97 517,-91.97 523,-91.97 523,-91.97 621,-91.97 621,-91.97 627,-91.97 633,-97.97 633,-103.97 633,-103.97 633,-115.97 633,-115.97 633,-121.97 627,-127.97 621,-127.97"/>
<text text-anchor="middle" x="572" y="-112.97" font-family="DejaVu Sans" font-size="10.00">Host_Communication</text>
<text text-anchor="middle" x="572" y="-101.97" font-family="DejaVu Sans" font-size="10.00">(singleton)</text>
</g>
<!-- hostc&#45;&gt;fpt -->
<g id="edge5" class="edge">
<title>hostc&#45;&gt;fpt</title>
<path fill="none" stroke="#8e44ad" d="M460,-133.43C390.49,-148.15 313.86,-164.46 313,-164.97 287.73,-179.92 266.63,-206.3 253.13,-226.28"/>
<polygon fill="#8e44ad" stroke="#8e44ad" points="255.56,-216.78 252.65,-226.97 261.28,-220.82 255.56,-216.78"/>
<text text-anchor="middle" x="378" y="-177.77" font-family="DejaVu Sans" font-size="9.00" fill="#6c3483">start_capture / stop_capture</text>
<text text-anchor="middle" x="378" y="-167.77" font-family="DejaVu Sans" font-size="9.00" fill="#6c3483">(queued)</text>
</g>
<!-- fpt&#45;&gt;mainwin -->
<g id="edge3" class="edge">
<title>fpt&#45;&gt;mainwin</title>
<path fill="none" stroke="#e74c3c" d="M239.89,-226.97C245.82,-187.06 263.33,-111.47 313,-74.97 334.97,-58.82 393.93,-52.13 449.95,-49.57"/>
<polygon fill="#e74c3c" stroke="#e74c3c" points="450.16,-53.06 460,-49.15 449.86,-46.07 450.16,-53.06"/>
<text text-anchor="middle" x="378" y="-87.77" font-family="DejaVu Sans" font-size="9.00" fill="#c0392b">newFrameReady4Display</text>
<text text-anchor="middle" x="378" y="-77.77" font-family="DejaVu Sans" font-size="9.00" fill="#c0392b">(queued)</text>
</g>
<!-- fpt&#45;&gt;mainwin -->
<g id="edge4" class="edge">
<title>fpt&#45;&gt;mainwin</title>
<path fill="none" stroke="#e74c3c" stroke-dasharray="5,2" d="M236.59,-234.73C236.69,-189.97 243.95,-74.74 313,-24.97 374.58,19.42 467.07,-5.14 522.97,-27.03"/>
<polygon fill="#e74c3c" stroke="#e74c3c" points="521.71,-30.3 532.29,-30.79 524.33,-23.81 521.71,-30.3"/>
<text text-anchor="middle" x="378" y="-37.77" font-family="DejaVu Sans" font-size="9.00" fill="#c0392b">update_runtime_display</text>
<text text-anchor="middle" x="378" y="-27.77" font-family="DejaVu Sans" font-size="9.00" fill="#c0392b">(queued)</text>
</g>
<!-- fpt&#45;&gt;hostc -->
<g id="edge7" class="edge">
<title>fpt&#45;&gt;hostc</title>
<path fill="none" stroke="#555555" d="M288.22,-236.71C348.99,-217.39 442.27,-187.67 443,-186.97 458.75,-171.9 443.97,-155.74 460,-140.97 471.41,-130.46 486.08,-123.47 501,-118.84"/>
<polygon fill="#555555" stroke="#555555" points="502.11,-122.16 510.81,-116.12 500.24,-115.41 502.11,-122.16"/>
<text text-anchor="middle" x="378" y="-240.77" font-family="DejaVu Sans" font-size="9.00">upload_frame_*()</text>
<text text-anchor="middle" x="378" y="-230.77" font-family="DejaVu Sans" font-size="9.00">(direct call)</text>
</g>
<!-- dtof -->
<g id="node6" class="node">
<title>dtof</title>
<path fill="#fdebd0" stroke="black" stroke-width="1.2" d="M601,-279.97C601,-279.97 543,-279.97 543,-279.97 537,-279.97 531,-273.97 531,-267.97 531,-267.97 531,-255.97 531,-255.97 531,-249.97 537,-243.97 543,-243.97 543,-243.97 601,-243.97 601,-243.97 607,-243.97 613,-249.97 613,-255.97 613,-255.97 613,-267.97 613,-267.97 613,-273.97 607,-279.97 601,-279.97"/>
<text text-anchor="middle" x="572" y="-259.47" font-family="DejaVu Sans" font-size="10.00">ADAPS_DTOF</text>
</g>
<!-- fpt&#45;&gt;dtof -->
<g id="edge2" class="edge">
<title>fpt&#45;&gt;dtof</title>
<path fill="none" stroke="#555555" d="M288.09,-254.34C351.27,-256.05 458.14,-258.93 520.87,-260.62"/>
<polygon fill="#555555" stroke="#555555" points="520.83,-264.12 530.92,-260.89 521.02,-257.12 520.83,-264.12"/>
<text text-anchor="middle" x="378" y="-260.77" font-family="DejaVu Sans" font-size="9.00">decode call</text>
</g>
<!-- v4l2 -->
<g id="node5" class="node">
<title>v4l2</title>
<path fill="#fdebd0" stroke="black" stroke-width="1.2" d="M58,-277.97C58,-277.97 28,-277.97 28,-277.97 22,-277.97 16,-271.97 16,-265.97 16,-265.97 16,-253.97 16,-253.97 16,-247.97 22,-241.97 28,-241.97 28,-241.97 58,-241.97 58,-241.97 64,-241.97 70,-247.97 70,-253.97 70,-253.97 70,-265.97 70,-265.97 70,-271.97 64,-277.97 58,-277.97"/>
<text text-anchor="middle" x="43" y="-257.47" font-family="DejaVu Sans" font-size="10.00">V4L2</text>
</g>
<!-- v4l2&#45;&gt;fpt -->
<g id="edge1" class="edge">
<title>v4l2&#45;&gt;fpt</title>
<path fill="none" stroke="#e74c3c" d="M70.16,-259.01C96.66,-258.04 138.62,-256.5 173.57,-255.22"/>
<polygon fill="#e74c3c" stroke="#e74c3c" points="173.83,-258.71 183.69,-254.85 173.57,-251.72 173.83,-258.71"/>
<text text-anchor="middle" x="127" y="-270.77" font-family="DejaVu Sans" font-size="9.00" fill="#c0392b">rx_new_frame</text>
<text text-anchor="middle" x="127" y="-260.77" font-family="DejaVu Sans" font-size="9.00" fill="#c0392b">(direct)</text>
</g>
</g>
</svg>
